<svg viewBox="0 0 1303.3 1307.17" xmlns="http://www.w3.org/2000/svg"><g fill="#ffd300"><path d="m1020.53 913.01c-103.02 0-202.48 15.48-296.23 44.14-164.48-234.12-425.26-395.83-724.3-427.23v53.1c275.7 30.57 516.64 178.04 671.95 391.67 10.71 14.73 21.05 29.74 30.92 45.08 17.09-6 34.39-11.56 51.9-16.6 84.44-24.3 173.6-37.36 265.76-37.36 98.37 0 193.32 14.87 282.77 42.42v-55.09c-89.8-26.09-184.67-40.13-282.77-40.13"/><path d="m791.28 1066.61c-17.4 4.63-34.53 9.88-51.5 15.52-22.75 7.57-45.19 15.83-67.09 25.15-11.6-20.85-23.98-41.21-37.16-60.99-9.98-14.98-20.37-29.64-31.21-43.96-142.6-188.41-358.18-318.66-604.32-348.16v53.27c225.26 28.77 422.8 147.29 555.72 318.43 10.93 14.07 21.56 28.38 31.59 43.15 13.32 19.59 25.7 39.86 37.35 60.6 8.61 15.31 16.91 30.82 24.57 46.71 15.73-7.8 31.69-15.21 47.96-22.04 21.76-9.13 44.01-17.28 66.65-24.57 16.9-5.45 34-10.43 51.35-14.82 65.74-16.61 134.51-25.52 205.34-25.52 99.19 0 194.37 17.42 282.77 49.18v-55.74c-88.92-29.83-183.94-46.24-282.77-46.24-79.25 0-156.06 10.53-229.25 30.03"/><path d="m562.58 1163.56c-11.62-20.62-24.13-40.67-37.54-60.06-10.07-14.56-20.67-28.72-31.69-42.53-119.8-150.01-294.46-254.33-493.35-282.14v53.58c180.36 27.15 338.92 121.69 448.87 257.36 11.08 13.67 21.63 27.77 31.7 42.24 13.48 19.37 26.03 39.42 37.57 60.12 8.65 15.5 16.68 31.37 24.18 47.55 10.16 21.93 19.21 44.44 27.14 67.49 14.73-10.73 29.85-20.95 45.35-30.64-8.24-22.57-17.57-44.61-27.81-66.13-7.59-15.94-15.79-31.52-24.42-46.84"/></g></svg>