<svg viewBox="0 0 64.37 40" xmlns="http://www.w3.org/2000/svg"><rect fill="#ffd300" height="40" rx="20" width="64.37"/><g fill="#232d4b"><path d="m15.62 19.23c0-.9.16-1.71.47-2.44s.74-1.35 1.28-1.87 1.17-.91 1.88-1.19 1.47-.42 2.27-.42 1.55.14 2.26.42 1.33.67 1.87 1.19.97 1.14 1.28 1.87.47 1.54.47 2.44c0 .77-.11 1.47-.34 2.1s-.54 1.19-.94 1.68l1.39 1.52-1.66 1.41-1.39-1.54c-.89.49-1.87.74-2.94.74-.8 0-1.56-.14-2.27-.42s-1.34-.67-1.88-1.19-.97-1.14-1.28-1.86c-.31-.73-.47-1.54-.47-2.43zm2.63-.01c0 .6.1 1.11.29 1.54s.45.78.76 1.06.67.49 1.06.62.78.2 1.18.2.77-.06 1.15-.19l-1.66-1.82 1.68-1.41 1.66 1.82c.14-.25.25-.52.32-.82s.11-.63.11-1.01c0-.59-.1-1.1-.29-1.54s-.44-.79-.75-1.07-.66-.49-1.05-.62c-.39-.14-.78-.21-1.18-.21s-.79.07-1.18.21-.74.35-1.06.62-.57.63-.76 1.07-.29.95-.29 1.54z"/><path d="m34.2 24.9c-.02-.07-.04-.2-.05-.38s-.02-.32-.02-.42c-.21.34-.52.59-.92.74s-.8.23-1.21.23c-.48 0-.91-.08-1.29-.25s-.7-.39-.95-.67c-.26-.28-.45-.61-.58-.98s-.2-.77-.2-1.2v-5.02h2.43v4.51c0 .38.1.71.31.98s.53.4.97.4c.41 0 .73-.13.97-.38s.36-.58.36-.98v-4.53h2.43v6.53c0 .36.01.67.03.94.02.26.04.42.05.49h-2.34z"/><path d="m38.31 14.51c0-.19.04-.38.11-.55.07-.18.18-.33.3-.46s.28-.23.45-.3.35-.11.54-.11c.41 0 .75.14 1.02.42.28.28.42.61.42 1.01s-.14.73-.42 1.01-.62.42-1.02.42c-.19 0-.37-.04-.54-.11s-.32-.18-.45-.3-.23-.28-.3-.46c-.08-.18-.11-.36-.11-.55zm.21 10.39v-7.95h2.43v7.95z"/><path d="m42.7 24.9v-2.14l3.5-3.73h-3.41v-2.08h6.51v2l-3.66 3.86h3.73v2.1h-6.67z"/></g></svg>