<svg viewBox="0 0 258.57 43.12" xmlns="http://www.w3.org/2000/svg"><g fill="#232d4b"><path d="m163.86 0h.59v43.03h-.59z"/><path d="m53.84 32.07c0 2.34-1.27 3.63-3.4 3.63s-3.4-1.29-3.4-3.63v-10.66h-2.79v10.82c0 4.01 2.72 6.14 6.19 6.14s6.21-2.13 6.21-6.14v-10.82h-2.81z"/><path d="m65.58 26.28c-1.27 0-2.62.54-3.37 1.85v-1.52h-2.65v11.41h2.72v-6.58c0-1.5.82-2.69 2.37-2.69 1.71 0 2.34 1.12 2.34 2.53v6.75h2.72v-7.22c0-2.51-1.34-4.52-4.12-4.52z"/><path d="m83.5 34.76-3.02-8.15h-3l4.64 11.41h2.72l4.47-11.41h-2.85z"/><path d="m95.61 26.26c-2.88 0-5.55 2.39-5.55 6 0 3.87 2.74 6.11 5.83 6.11 2.74 0 4.55-1.62 5.15-3.61l-2.3-.73c-.37 1.12-1.22 1.99-2.86 1.99s-3.05-1.24-3.12-2.98h8.34s.07-.42.07-.87c0-3.61-2.06-5.93-5.58-5.93zm-2.76 4.8c.09-1.22 1.08-2.53 2.79-2.53 1.87 0 2.76 1.19 2.81 2.53z"/><path d="m106.02 28.44v-1.83h-2.65v11.41h2.72v-5.44c0-2.13.96-3.35 3.07-3.35.28 0 .59.02.89.07v-2.76c-.12-.02-.4-.07-.73-.07-1.5 0-2.76.73-3.3 1.97z"/><path d="m116.96 31.25-1.73-.35c-.7-.14-1.15-.59-1.15-1.19 0-.7.68-1.31 1.64-1.31 1.52 0 2.01 1.05 2.11 1.71l2.3-.66c-.19-1.12-1.22-3.19-4.4-3.19-2.37 0-4.19 1.69-4.19 3.68 0 1.57 1.05 2.88 3.07 3.33l1.69.37c.91.19 1.34.66 1.34 1.27 0 .7-.59 1.31-1.71 1.31-1.45 0-2.23-.91-2.32-1.94l-2.37.66c.14 1.29 1.41 3.44 4.71 3.44 2.91 0 4.31-1.92 4.31-3.65s-1.12-3-3.28-3.47h-.02z"/><path d="m122.93 26.61h2.69v11.41h-2.69z"/><path d="m132.58 34.32v-5.29h2.37v-2.41h-2.37v-3.49h-2.46v1.71c0 1.01-.54 1.78-1.76 1.78h-.59v2.41h2.11v5.74c0 2.13 1.31 3.4 3.42 3.4.98 0 1.5-.19 1.66-.26v-2.25c-.12.02-.56.09-.94.09-1.01 0-1.45-.42-1.45-1.43z"/><path d="m72.8 26.61h2.69v11.41h-2.69z"/><path d="m74.13 21.41c-.8 0-1.46.66-1.46 1.48s.66 1.46 1.46 1.46 1.48-.64 1.48-1.46-.66-1.48-1.48-1.48z"/><path d="m124.27 21.41c-.8 0-1.46.66-1.46 1.48s.66 1.46 1.46 1.46 1.48-.64 1.48-1.46-.66-1.48-1.48-1.48z"/><path d="m145.75 26.61-3.15 9.17h-.07l-2.79-9.17h-2.89l4.35 12.25-.24.65c-.17.45-.38.78-.63.97-.25.2-.53.3-.86.3s-.69-.05-1.1-.17l-.66 2.2c.19.08.45.15.78.21s.68.09 1.07.09c.74 0 1.38-.12 1.91-.36s.99-.59 1.36-1.05.67-1 .89-1.64l4.81-13.46h-2.78z"/><path d="m47.05 10.01h6.75v-2.6h-6.75v-4.66h7.52v-2.65h-10.33v16.61h2.81z"/><path d="m57.12.1h2.72v16.61h-2.72z"/><path d="m63.36 5.3h2.69v11.41h-2.69z"/><path d="m79.32 16.71v-7.22c0-2.51-1.34-4.52-4.12-4.52-1.27 0-2.62.54-3.37 1.85v-1.52h-2.65v11.41h2.72v-6.58c0-1.5.82-2.69 2.37-2.69 1.71 0 2.34 1.12 2.34 2.53v6.75h2.72z"/><path d="m90.4 16.71h2.6c-.02-.19-.12-1.05-.12-2.09v-14.53h-2.65v6.54c-.35-.73-1.36-1.64-3.35-1.64-3.21 0-5.44 2.69-5.44 5.97s2.2 6.02 5.48 6.02c1.62 0 2.81-.8 3.35-1.76 0 .47.07 1.22.12 1.48h.01zm-3.16-2.11c-1.85 0-3.07-1.45-3.07-3.63s1.31-3.56 3.09-3.56 3 1.36 3 3.54-1.24 3.65-3.02 3.65z"/><path d="m100.81 17.06c2.74 0 4.55-1.62 5.15-3.61l-2.3-.73c-.37 1.12-1.22 1.99-2.86 1.99s-3.05-1.24-3.12-2.98h8.34s.07-.42.07-.87c0-3.61-2.06-5.93-5.58-5.93-2.88 0-5.55 2.39-5.55 6 0 3.87 2.74 6.11 5.83 6.11zm-.26-9.84c1.87 0 2.76 1.19 2.81 2.53h-5.6c.09-1.22 1.08-2.53 2.79-2.53z"/><path d="m114.07 7.93c.28 0 .59.02.89.07v-2.76c-.12-.02-.4-.07-.73-.07-1.5 0-2.76.73-3.3 1.97v-1.83h-2.65v11.41h2.72v-5.44c0-2.13.96-3.35 3.07-3.35z"/><path d="m125.15 13.41c0-1.69-1.12-3-3.28-3.47l-1.73-.35c-.7-.14-1.15-.59-1.15-1.19 0-.7.68-1.31 1.64-1.31 1.52 0 2.01 1.05 2.11 1.71l2.3-.66c-.19-1.12-1.22-3.19-4.4-3.19-2.37 0-4.19 1.69-4.19 3.68 0 1.57 1.05 2.88 3.07 3.33l1.69.37c.91.19 1.34.66 1.34 1.27 0 .7-.59 1.31-1.71 1.31-1.45 0-2.23-.91-2.32-1.94l-2.37.66c.14 1.29 1.41 3.44 4.71 3.44 2.91 0 4.31-1.92 4.31-3.65h-.02z"/><path d="m64.69 3c.82 0 1.48-.64 1.48-1.46s-.66-1.48-1.48-1.48-1.46.66-1.46 1.48.66 1.46 1.46 1.46z"/></g><path d="m0 17.35c6.83 1.71 12.7 5.59 16.92 10.97.23.3.46.59.68.9.35.48.68.96 1 1.46.55-.19 1.12-.37 1.68-.54 2.74-.79 5.63-1.21 8.62-1.21h.16c.29-.55.55-1.12.77-1.7-.31 0-.62-.02-.93-.02-3.34 0-6.57.5-9.61 1.43-4.55-6.49-11.33-11.17-19.29-13.06z" fill="#fff"/><path d="m13.89 30.96c.35.46.7.93 1.02 1.41.43.64.82 1.28 1.2 1.95.28.5.5.93.75 1.45.51-.25 1.05-.49 1.58-.72.71-.3 1.42-.56 2.15-.79.55-.18 1.12-.34 1.68-.48 1.14-.29 2.25-.5 3.44-.64.65-.6 1.22-1.21 1.74-1.85-2.08.1-4 .4-5.94.92-.56.15-1.13.32-1.68.5-.74.25-1.51.52-2.22.83-.38-.68-.7-1.27-1.12-1.92-.32-.49-.66-.96-1.01-1.43-3.81-5.03-9.22-8.78-15.48-10.48v1.78c5.58 1.62 10.4 4.99 13.88 9.47z" fill="#fff"/><path d="m10.44 33c.36.44.7.9 1.03 1.37.44.63.84 1.28 1.22 1.95.12.21.23.42.34.63.75.36 1.54.7 2.37 1.02-.15-.36-.31-.71-.47-1.06-.25-.52-.51-1.02-.79-1.52-.38-.67-.78-1.32-1.22-1.95-.33-.47-.67-.93-1.03-1.38-3-3.76-7.05-6.59-11.73-8.11.07.67.16 1.06.31 1.88l.09.03c3.94 1.46 7.29 3.92 9.89 7.13h-.01z" fill="#fff"/><path d="m256.9 25.89c.09.04.16.08.21.14s.1.11.12.18.04.13.05.18l1.21-.22c-.02-.16-.08-.33-.16-.5s-.2-.32-.35-.46-.34-.25-.57-.33c-.23-.09-.5-.13-.83-.13-.26 0-.5.04-.73.13-.23.08-.43.2-.6.34-.17.15-.31.32-.41.52s-.15.42-.15.66c0 .4.12.73.37 1s.6.44 1.06.53l.63.12c.16.03.28.08.35.16.08.08.11.17.11.28 0 .13-.05.24-.16.33s-.25.13-.43.13c-.14 0-.27-.02-.37-.06s-.19-.09-.26-.16-.13-.15-.17-.24-.06-.18-.06-.28l-1.22.21c0 .18.06.36.15.55s.21.37.38.52c.17.16.38.29.63.39.26.1.56.15.92.15.31 0 .59-.05.83-.14.24-.1.44-.22.61-.38s.29-.33.38-.53.13-.4.13-.6c0-.39-.12-.73-.37-1-.25-.28-.62-.46-1.11-.56l-.64-.12c-.15-.03-.26-.08-.33-.15s-.1-.16-.1-.27c0-.12.05-.23.16-.33.11-.09.25-.14.41-.14.12 0 .23.02.32.05m-6.73 1.21v-1.1h.56c.2 0 .35.05.46.15.1.1.15.23.15.39s-.05.3-.15.4-.25.15-.46.15h-.56zm0 2.88v-1.84h.28l.8 1.84h1.46l-.96-2.03c.28-.11.51-.29.68-.53.17-.25.26-.54.26-.89 0-.23-.04-.45-.12-.65s-.2-.37-.34-.52c-.15-.15-.33-.26-.54-.34s-.44-.12-.7-.12h-2.15v5.09h1.33zm-5.86-3.7.52 1.64h-1.05zm1.17 3.7h1.44l-1.78-5.09h-1.59l-1.79 5.09h1.36l.31-.96h1.74zm-5.47 0v-1.18h-1.94v-.82h1.75v-1.12h-1.75v-.8h1.92v-1.16h-3.26v5.09h3.28zm-8.24-2.08v2.08h1.36v-2.08l1.69-3.01h-1.49l-.84 1.72-.84-1.72h-1.55z" fill="#232d4b"/><path d="m219.97 25.29c1.42-1.73 8.07-9.35 16.15-10.37 0 0 8.45-1.06 13.12 5.49-4.7-12.12-18.83-9.81-18.83-9.81-8.65.78-16.55 10.38-16.55 10.38s-6.3 7.19-9.6 10.32c-1.88 1.79-9.2 9.76-19.87 4.42-1.67-.83-4.57-3.25-6.1-7.96 1.71 12.97 13.18 13.98 13.18 13.98 13.44 2.35 26.99-14.89 28.49-16.46h.01z" fill="#fff"/><path d="m195.1 35.91c1.68-.32 3.14-1.05 4.28-1.8-.33.15-.65.34-1.25.53-1.21.39-1.56.34-2.54.34-4.14 0-7.5-3.36-7.5-7.5s3.38-7.11 7.5-7.5c.92-.09.9-.03 1.68.05 5.74.58 10.06 6.75 10.06 6.75l5.48-6.09c-6.46-8.35-15.48-7.82-17.96-7.25-5.63 1.29-7.38 5.14-7.69 5.82-.02.04-.03.08 0 0 2.11-5.16 7.49-7.04 8.3-7.23 3.46-3.63 12.05-12.03 12.05-12.03l-12.82 1.21s-5.37 5.71-9.89 10.49c-6.46 6.83-6.67 13.58-6.6 15.4 1.32 3.25 5.69 10.93 16.87 8.81z" fill="#fff"/><path d="m235.49 15.92s-3.97.29-8.99 4.63c2.24-1.18 3.7-1.75 6.41-1.8 2.92-.05 5.5 1.41 7.08 3.58h9.85c-.14-.64-.32-1.15-.35-1.22-1.66-1.67-6.92-6.21-14-5.18z" fill="#fff"/><path d="m231.07 35.56-.26-.04c-8.42-1.49-11.61-7.77-11.61-7.77l-5.83 5.97s2.89 3.55 6.69 6.15c8.57 5.87 18.25 1.99 18.25 1.99 6.08-2.6 9.17-6.18 10.66-9.61h-9.03c-1.58 2.13-5.11 3.93-8.87 3.32z" fill="#fff"/><path d="m33.06 5.49v-5.31h-33.06v5.31 10.11c2.15.51 4.25 1.24 6.25 2.17 5.24 2.45 9.73 6.23 13.03 10.92 3.3-1.01 6.9-1.52 10.49-1.41-.22.58-.48 1.14-.77 1.69-3.64-.02-7.08.58-10.41 1.74-4.21-6.57-10.99-11.48-18.59-13.36v2.36c7.41 2.01 13.91 7.1 17.61 13.82 3.13-1.32 6.4-2.08 9.84-2.24-.52.64-1.1 1.26-1.74 1.85-3.09.36-6.08 1.24-8.85 2.62-3.27-6.85-9.54-12.17-16.84-14.28l.15 2.47c6.82 2.17 12.41 7.35 15.17 13.95-.81-.31-1.59-.64-2.36-1.01-2.62-5.08-7.09-9.05-12.5-11.06.85 3.91 3.22 7.35 6.31 9.84 2.87 2.24 6.19 4.14 9.76 4.98 3.87-.93 7.49-3.03 10.5-5.61s0 0 0 0c.49-.44.96-.91 1.41-1.39.21-.23.41-.47.61-.7.27-.34.54-.68.79-1.03-.05.06-.09.13-.13.19 2.15-2.88 3.3-6.45 3.34-10.04v-16.59c0-9.03 0 0 0 0z" fill="#232d4b"/><path d="m23.39 13.45 2.66-4.29-4.77 1.64.54-5.02-3.59 3.55-1.69-4.75-1.69 4.75-3.59-3.55.54 5.02-4.77-1.64 2.66 4.29-4.95.58c6.78 2.49 12.59 6.99 16.72 12.77l-.18-4.11 4.77 1.64-2.66-4.29 5.01-.59-4.26-2.71 4.26-2.71-5.01-.59z" fill="#ffd300"/></svg>