<svg width="40" height="40" viewBox="0 0 40 40" fill="none" xmlns="http://www.w3.org/2000/svg">
<path d="M5.70039 18.8C5.20039 18.8 4.80039 18.6 4.40039 18.3C4.00039 17.9 3.90039 17.5 3.90039 17V5.70002C3.90039 5.20002 4.10039 4.80002 4.40039 4.40002C4.80039 4.00002 5.20039 3.90002 5.70039 3.90002H17.0004C17.5004 3.90002 17.9004 4.10002 18.3004 4.40002C18.7004 4.80002 18.8004 5.20002 18.8004 5.70002V17C18.8004 17.5 18.6004 17.9 18.3004 18.3C18.0004 18.7 17.5004 18.8 17.0004 18.8H5.70039ZM23.1004 18.8C22.6004 18.8 22.2004 18.6 21.8004 18.3C21.4004 17.9 21.3004 17.5 21.3004 17V5.70002C21.3004 5.20002 21.5004 4.80002 21.8004 4.40002C22.2004 4.00002 22.6004 3.90002 23.1004 3.90002H34.4004C34.9004 3.90002 35.3004 4.10002 35.7004 4.40002C36.1004 4.80002 36.2004 5.20002 36.2004 5.70002V17C36.2004 17.5 36.0004 17.9 35.7004 18.3C35.3004 18.7 34.9004 18.8 34.4004 18.8H23.1004ZM5.70039 36.2C5.20039 36.2 4.80039 36 4.40039 35.7C4.00039 35.3 3.90039 34.9 3.90039 34.4V23.1C3.90039 22.6 4.10039 22.2 4.40039 21.8C4.80039 21.4 5.20039 21.3 5.70039 21.3H17.0004C17.5004 21.3 17.9004 21.5 18.3004 21.8C18.7004 22.1 18.8004 22.6 18.8004 23.1V34.4C18.8004 34.9 18.6004 35.3 18.3004 35.7C17.9004 36.1 17.5004 36.2 17.0004 36.2H5.70039ZM28.7004 36.2C28.2004 36.2 27.7004 36 27.4004 35.7C27.0004 35.3 26.9004 34.9 26.9004 34.4V30.6H23.1004C22.6004 30.6 22.2004 30.4 21.8004 30.1C21.5004 29.7 21.3004 29.3 21.3004 28.8C21.3004 28.3 21.5004 27.9 21.8004 27.5C22.2004 27.1 22.6004 27 23.1004 27H26.9004V23.2C26.9004 22.7 27.1004 22.3 27.4004 21.9C27.8004 21.6 28.2004 21.4 28.7004 21.4C29.2004 21.4 29.6004 21.6 30.0004 21.9C30.4004 22.2 30.5004 22.7 30.5004 23.2V27H34.3004C34.8004 27 35.2004 27.2 35.6004 27.5C35.9004 27.9 36.1004 28.3 36.1004 28.8C36.1004 29.3 35.9004 29.8 35.6004 30.1C35.2004 30.5 34.8004 30.6 34.3004 30.6H30.5004V34.4C30.5004 34.9 30.3004 35.3 30.0004 35.7C29.6004 36 29.2004 36.2 28.7004 36.2ZM24.9004 7.50002V15.1H32.5004V7.50002H24.9004ZM7.50039 7.50002V15.1H15.1004V7.50002H7.50039ZM7.50039 24.9V32.5H15.1004V24.9H7.50039Z" fill="#232D4B"/>
</svg>
