<svg viewBox="0 0 168.51 28.66" xmlns="http://www.w3.org/2000/svg"><g fill="#fff"><path d="m37.03 10.5v10.04h-2.84v-10.04h-3.92v-2.72h10.71v2.72h-3.94z"/><path d="m44.7 11.33c.67 0 1.3.12 1.87.35.58.23 1.08.56 1.5.98.43.42.76.92 1.01 1.49.25.58.37 1.21.37 1.91s-.12 1.33-.37 1.92-.58 1.08-1.01 1.5-.93.75-1.5.98c-.58.23-1.2.35-1.87.35s-1.3-.12-1.87-.35c-.58-.23-1.08-.56-1.5-.98-.43-.42-.76-.92-1.01-1.5s-.37-1.22-.37-1.92.12-1.33.37-1.91.58-1.07 1.01-1.49.93-.75 1.5-.98c.58-.23 1.2-.35 1.87-.35zm0 6.97c.26 0 .52-.04.76-.13s.45-.23.64-.41c.19-.19.34-.42.45-.69.11-.28.17-.61.17-.99s-.06-.7-.17-.98-.26-.51-.45-.69-.4-.32-.64-.41-.49-.13-.76-.13-.5.04-.75.13-.46.23-.65.41-.34.41-.45.69-.17.61-.17.98.06.7.17.98.26.52.45.7c.19.19.4.32.65.41s.5.13.75.13z"/><path d="m51.25 23.97v-12.37h2.65v.92c.19-.29.52-.55.97-.78s1.01-.35 1.66-.35 1.23.12 1.75.35.95.56 1.3.97.63.91.82 1.48.29 1.19.29 1.86-.11 1.31-.32 1.89-.5 1.07-.88 1.48-.83.74-1.35.97-1.1.35-1.72.35c-.58 0-1.07-.09-1.49-.26s-.73-.39-.94-.64v4.12h-2.74zm6.75-7.91c0-.37-.05-.7-.16-.97-.11-.28-.26-.51-.45-.69-.19-.19-.41-.32-.66-.41s-.5-.13-.76-.13-.52.04-.77.13-.46.23-.65.41c-.19.19-.33.42-.44.69-.11.28-.16.6-.16.97s.05.7.16.97c.11.28.25.51.44.69.19.19.4.33.65.42.25.1.5.14.77.14s.52-.04.76-.13c.25-.09.46-.23.66-.41.19-.19.34-.42.45-.7s.16-.61.16-.98z"/><path d="m66.43 13.53c-.02-.07-.05-.21-.07-.4-.02-.2-.04-.39-.04-.57 0-.52.1-1.01.29-1.49s.47-.9.85-1.27.83-.66 1.37-.87c.54-.22 1.16-.32 1.87-.32s1.27.1 1.81.31.99.48 1.37.83.67.76.86 1.22c.2.47.3.96.3 1.48 0 .76-.2 1.44-.58 2.05-.39.61-.96 1.14-1.72 1.58l-2.21 1.31c-.17.11-.32.23-.46.35-.14.13-.25.27-.33.44h5.4v2.38h-8.87c0-.54.04-1.05.13-1.54s.23-.94.44-1.38.49-.83.85-1.21c.35-.37.8-.71 1.34-1.03l1.91-1.12c.46-.28.78-.55.98-.82s.3-.6.3-.98-.13-.7-.39-.97c-.26-.28-.65-.41-1.18-.41s-.96.17-1.23.5-.41.74-.41 1.23c0 .25.04.49.11.72l-2.66-.02z"/><path d="m76.36 11.64c0-.42.08-.81.24-1.17s.38-.67.66-.94.6-.48.96-.64c.37-.16.76-.23 1.18-.23s.8.08 1.17.23c.37.16.7.37.97.64.28.27.5.58.66.94s.24.75.24 1.17-.08.83-.24 1.2-.38.68-.66.94-.6.47-.97.62-.77.23-1.19.23-.81-.08-1.18-.23c-.37-.16-.69-.37-.96-.64-.28-.27-.49-.58-.65-.95-.16-.36-.23-.75-.23-1.17zm1.93 8.91 8.15-11.68h2.34l-8.17 11.68zm.02-8.91c0 .36.1.65.31.86.21.22.47.32.78.32s.57-.11.77-.33.31-.51.31-.85-.1-.63-.31-.84-.46-.31-.77-.31-.57.1-.78.31-.31.49-.31.84zm6.28 6.15c0-.42.08-.81.24-1.17s.38-.68.66-.95.6-.48.96-.64.76-.23 1.18-.23.8.08 1.17.23c.37.16.7.37.97.64s.5.58.66.95c.16.36.24.75.24 1.17s-.08.83-.24 1.2-.38.68-.66.95c-.28.26-.6.47-.97.62s-.77.23-1.19.23-.81-.08-1.18-.23-.69-.37-.96-.64c-.28-.27-.49-.58-.65-.94s-.23-.75-.23-1.17zm1.94 0c0 .36.11.65.32.86.21.22.47.32.78.32s.57-.11.77-.33.31-.51.31-.85-.1-.63-.31-.84-.46-.31-.77-.31-.57.1-.78.31-.32.49-.32.84z"/><path d="m98.38 20.37c.1.43.31.79.65 1.07s.76.42 1.28.42c.68 0 1.22-.18 1.62-.53s.59-.94.59-1.76v-.41c-.17.24-.45.47-.84.68-.39.22-.91.32-1.56.32-.6 0-1.15-.11-1.66-.33s-.94-.53-1.31-.92-.66-.85-.87-1.38-.31-1.1-.31-1.73c0-.59.1-1.15.31-1.67.2-.53.49-.99.85-1.4.37-.4.8-.72 1.31-.95s1.07-.35 1.68-.35c.36 0 .68.04.96.11s.53.16.73.27.37.23.5.36.23.26.29.38v-.95h2.61v7.83c0 .65-.09 1.26-.28 1.84s-.47 1.09-.86 1.53-.88.79-1.48 1.05-1.32.39-2.16.39c-.65 0-1.23-.09-1.75-.27s-.97-.42-1.35-.72-.68-.64-.92-1.03c-.23-.38-.38-.77-.44-1.17zm2.25-2.58c.56 0 1.02-.18 1.38-.53.35-.35.53-.84.53-1.45 0-.3-.05-.57-.15-.82s-.24-.46-.41-.63-.38-.31-.61-.4-.48-.13-.73-.13-.49.04-.73.13c-.23.09-.44.22-.62.4-.18.17-.32.38-.42.63s-.15.52-.15.82c0 .61.18 1.1.55 1.45s.83.53 1.38.53z"/><path d="m107.52 20.55v-13.04h2.74v13.03h-2.74z"/><path d="m116.81 11.33c.67 0 1.3.12 1.87.35.58.23 1.08.56 1.5.98.43.42.76.92 1.01 1.49.25.58.37 1.21.37 1.91s-.12 1.33-.37 1.92-.58 1.08-1.01 1.5-.93.75-1.5.98c-.58.23-1.2.35-1.87.35s-1.3-.12-1.87-.35c-.58-.23-1.08-.56-1.5-.98-.43-.42-.76-.92-1.01-1.5s-.37-1.22-.37-1.92.12-1.33.37-1.91.58-1.07 1.01-1.49.93-.75 1.5-.98c.58-.23 1.2-.35 1.87-.35zm0 6.97c.26 0 .52-.04.76-.13s.45-.23.64-.41c.19-.19.34-.42.45-.69.11-.28.17-.61.17-.99s-.06-.7-.17-.98-.26-.51-.45-.69-.4-.32-.64-.41-.49-.13-.76-.13-.5.04-.75.13-.46.23-.65.41-.34.41-.45.69-.17.61-.17.98.06.7.17.98.26.52.45.7c.19.19.4.32.65.41s.5.13.75.13z"/><path d="m123.36 20.55v-13.04h2.68v4.93c.19-.28.52-.52.98-.74s1-.32 1.61-.32c.65 0 1.23.12 1.75.35s.95.56 1.3.97.63.91.82 1.48.29 1.19.29 1.86-.11 1.31-.32 1.89-.5 1.07-.88 1.48-.83.74-1.35.97-1.1.35-1.72.35-1.12-.11-1.56-.34-.76-.52-.96-.86v1.01h-2.65zm6.7-4.49c0-.37-.05-.7-.16-.98s-.25-.51-.44-.69-.4-.32-.65-.41-.5-.13-.76-.13-.52.04-.76.13c-.25.09-.46.23-.65.41s-.34.41-.45.69-.17.61-.17.98.06.7.17.97c.11.28.26.51.45.69.19.19.4.33.65.42.25.1.5.14.76.14s.52-.04.76-.13c.25-.09.46-.23.65-.41.19-.19.33-.42.44-.7s.16-.61.16-.98z"/><path d="m134.13 18.08c0-.4.07-.75.21-1.06s.33-.58.57-.8.52-.4.84-.54.66-.24 1.03-.3l2.11-.32c.24-.04.41-.11.5-.22s.14-.24.14-.4c0-.26-.11-.49-.33-.68s-.55-.29-.98-.29c-.48 0-.85.14-1.11.41s-.4.57-.42.91l-2.38-.49c.02-.32.12-.66.29-1.01s.41-.67.73-.95c.32-.29.72-.53 1.2-.72s1.05-.29 1.71-.29c.72 0 1.33.09 1.84.28.5.19.91.44 1.23.76s.55.69.68 1.11c.14.42.21.86.21 1.31v4.37c0 .35.01.65.04.92.03.26.05.42.06.47h-2.47s-.03-.13-.05-.3c-.02-.16-.04-.4-.04-.71-.24.38-.57.69-.99.92s-.93.34-1.53.34c-.49 0-.93-.08-1.31-.23s-.71-.35-.97-.6-.46-.54-.6-.86-.21-.67-.21-1.03zm3.76.74c.2 0 .41-.03.6-.08.2-.05.37-.15.52-.29s.27-.32.37-.55.14-.52.14-.86v-.4l-1.69.27c-.29.05-.53.15-.72.3s-.29.38-.29.69c0 .24.08.45.24.64s.43.28.82.28z"/><path d="m144.42 20.55v-13.04h2.74v13.03h-2.74z"/><path d="m149.46 20.55v-13.04h2.74v13.03h-2.74z"/><path d="m155.24 23.98 2.03-4.64-3.76-7.74h3.06l2.18 4.79 1.98-4.79h2.9l-5.51 12.38z"/><path d="m166.92 8.4 1.2-.39.4 1.15-1.21.4.73 1.02-.99.72-.77-1.03-.75 1.03-.99-.72.74-1.02-1.21-.4.39-1.15 1.2.39v-1.29h1.26z"/><path d="m11.34 14.06-2.5 1.94c-.17.12-.33.13-.51.02-.17-.11-.23-.27-.18-.46l.94-3.15-2.53-1.89c-.18-.11-.24-.26-.17-.45s.21-.29.42-.29h3.08l1.03-3.33c.07-.21.21-.32.4-.32s.33.11.4.32l1.01 3.33h3.13c.2 0 .33.1.4.29s.01.34-.17.45l-2.51 1.89.89 3.15c.05.2 0 .35-.15.46s-.31.11-.48-.02l-2.52-1.94zm0 12.57-5.9 1.93c-.56.19-1.07.11-1.54-.25-.47-.35-.7-.82-.7-1.4v-7.69c-1.07-1.09-1.87-2.31-2.41-3.68-.53-1.36-.8-2.77-.8-4.21 0-3.18 1.1-5.86 3.29-8.05 2.2-2.18 4.88-3.28 8.06-3.28s5.87 1.1 8.06 3.29c2.2 2.19 3.3 4.87 3.3 8.05 0 1.44-.27 2.84-.81 4.21-.54 1.36-1.34 2.59-2.42 3.68v7.69c0 .58-.23 1.05-.7 1.4s-.97.44-1.52.25l-5.92-1.93zm0-7.36c2.21 0 4.08-.77 5.62-2.3s2.31-3.41 2.31-5.63-.77-4.08-2.31-5.62-3.41-2.31-5.62-2.31-4.08.77-5.62 2.31-2.31 3.41-2.31 5.62.77 4.1 2.31 5.63 3.41 2.3 5.62 2.3zm-5.56 6.5 5.56-1.82 5.56 1.82v-4.66c-.85.54-1.76.94-2.7 1.2-.95.26-1.9.39-2.86.39s-1.91-.13-2.86-.39-1.85-.66-2.7-1.2z"/></g></svg>